<svg id="visual" viewBox="0 0 1920 720" width="1920" height="720" xmlns="http://www.w3.org/2000/svg" xmlns:xlink="http://www.w3.org/1999/xlink" version="1.1"><path d="M0 218L53.3 219C106.7 220 213.3 222 320 221.7C426.7 221.3 533.3 218.7 640 222.2C746.7 225.7 853.3 235.3 960 249.3C1066.7 263.3 1173.3 281.7 1280 300.3C1386.7 319 1493.3 338 1600 334.5C1706.7 331 1813.3 305 1866.7 292L1920 279L1920 721L1866.7 721C1813.3 721 1706.7 721 1600 721C1493.3 721 1386.7 721 1280 721C1173.3 721 1066.7 721 960 721C853.3 721 746.7 721 640 721C533.3 721 426.7 721 320 721C213.3 721 106.7 721 53.3 721L0 721Z" fill="#5e81ac"></path><path d="M0 387L53.3 394.7C106.7 402.3 213.3 417.7 320 408.5C426.7 399.3 533.3 365.7 640 367C746.7 368.3 853.3 404.7 960 420.3C1066.7 436 1173.3 431 1280 410C1386.7 389 1493.3 352 1600 349.5C1706.7 347 1813.3 379 1866.7 395L1920 411L1920 721L1866.7 721C1813.3 721 1706.7 721 1600 721C1493.3 721 1386.7 721 1280 721C1173.3 721 1066.7 721 960 721C853.3 721 746.7 721 640 721C533.3 721 426.7 721 320 721C213.3 721 106.7 721 53.3 721L0 721Z" fill="#4f6686"></path><path d="M0 573L53.3 558.3C106.7 543.7 213.3 514.3 320 513.2C426.7 512 533.3 539 640 530.7C746.7 522.3 853.3 478.7 960 470.8C1066.7 463 1173.3 491 1280 496.7C1386.7 502.3 1493.3 485.7 1600 490.7C1706.7 495.7 1813.3 522.3 1866.7 535.7L1920 549L1920 721L1866.7 721C1813.3 721 1706.7 721 1600 721C1493.3 721 1386.7 721 1280 721C1173.3 721 1066.7 721 960 721C853.3 721 746.7 721 640 721C533.3 721 426.7 721 320 721C213.3 721 106.7 721 53.3 721L0 721Z" fill="#3f4c62"></path><path d="M0 682L53.3 669.2C106.7 656.3 213.3 630.7 320 616.8C426.7 603 533.3 601 640 603.8C746.7 606.7 853.3 614.3 960 604.5C1066.7 594.7 1173.3 567.3 1280 576.8C1386.7 586.3 1493.3 632.7 1600 638.5C1706.7 644.3 1813.3 609.7 1866.7 592.3L1920 575L1920 721L1866.7 721C1813.3 721 1706.7 721 1600 721C1493.3 721 1386.7 721 1280 721C1173.3 721 1066.7 721 960 721C853.3 721 746.7 721 640 721C533.3 721 426.7 721 320 721C213.3 721 106.7 721 53.3 721L0 721Z" fill="#2e3440"></path></svg>